<svg version="1.1" viewBox="0.0 0.0 960.0 960.0" fill="none" stroke="none" stroke-linecap="square" stroke-miterlimit="10" xmlns:xlink="http://www.w3.org/1999/xlink" xmlns="http://www.w3.org/2000/svg"><clipPath id="p.0"><path d="m0 0l960.0 0l0 960.0l-960.0 0l0 -960.0z" clip-rule="nonzero"/></clipPath><g clip-path="url(#p.0)"><path fill="#000000" fill-opacity="0.0" d="m0 0l960.0 0l0 960.0l-960.0 0z" fill-rule="evenodd"/><path fill="#106635" d="m23.18504 480.0005l182.72598 -399.71307l548.178 0l182.72595 399.71307l-182.72595 399.71307l-548.178 0z" fill-rule="evenodd"/><path stroke="#106635" stroke-width="1.0" stroke-linejoin="round" stroke-linecap="butt" d="m23.18504 480.0005l182.72598 -399.71307l548.178 0l182.72595 399.71307l-182.72595 399.71307l-548.178 0z" fill-rule="evenodd"/><path fill="#ffffff" d="m73.19948 480.00012l162.7202 -355.95013l488.16064 0l162.72021 355.95013l-162.72021 355.95013l-488.16064 0z" fill-rule="evenodd"/><path stroke="#000000" stroke-width="1.0" stroke-linejoin="round" stroke-linecap="butt" d="m73.19948 480.00012l162.7202 -355.95013l488.16064 0l162.72021 355.95013l-162.72021 355.95013l-488.16064 0z" fill-rule="evenodd"/><path fill="#000000" fill-opacity="0.0" d="m125.41746 272.3004l709.16534 0l0 415.40155l-709.16534 0z" fill-rule="evenodd"/><path fill="#106635" d="m232.67603 384.9804l0 -75.59375l32.625 0q7.125 0 12.6875 3.234375q5.5625 3.234375 8.84375 8.859375q3.296875 5.609375 3.296875 12.625q0 7.34375 -3.296875 13.125q-3.28125 5.78125 -8.84375 9.140625q-5.5625 3.34375 -12.6875 3.34375l-14.265625 0l0 25.265625l-18.359375 0zm18.046875 -41.359375l11.984375 0q2.375 0 4.3125 -1.1875q1.953125 -1.1875 3.140625 -3.234375q1.1875 -2.0625 1.1875 -4.765625q0 -2.8125 -1.1875 -4.75q-1.1875 -1.9375 -3.140625 -3.015625q-1.9375 -1.09375 -4.3125 -1.09375l-11.984375 0l0 18.046875zm51.933533 41.359375l0 -15.4375l12.75 0l0 -44.71875l-12.75 0l0 -15.4375l43.96875 0l0 15.4375l-12.859375 0l0 44.71875l12.859375 0l0 15.4375l-43.96875 0zm86.51816 1.078125q-7.453125 0 -13.453125 -1.78125q-5.984375 -1.78125 -10.640625 -5.171875q-4.640625 -3.40625 -8.3125 -8.0625l11.125 -12.625q5.40625 7.234375 10.859375 9.71875q5.453125 2.484375 11.28125 2.484375q2.921875 0 5.296875 -0.75q2.375 -0.765625 3.671875 -2.21875q1.296875 -1.46875 1.296875 -3.625q0 -1.625 -0.8125 -2.90625q-0.8125 -1.296875 -2.21875 -2.265625q-1.40625 -0.984375 -3.34375 -1.796875q-1.9375 -0.8125 -4.109375 -1.40625q-2.15625 -0.59375 -4.421875 -1.015625q-6.265625 -1.40625 -10.90625 -3.453125q-4.640625 -2.0625 -7.71875 -5.03125q-3.078125 -2.96875 -4.59375 -6.796875q-1.515625 -3.84375 -1.515625 -8.59375q0 -5.078125 2.3125 -9.34375q2.328125 -4.265625 6.265625 -7.34375q3.953125 -3.078125 9.125 -4.75q5.1875 -1.671875 10.8125 -1.671875q7.453125 0 12.796875 1.5625q5.34375 1.5625 9.171875 4.484375q3.84375 2.921875 6.546875 7.015625l-11.34375 10.90625q-2.265625 -2.796875 -4.921875 -4.625q-2.640625 -1.84375 -5.609375 -2.8125q-2.96875 -0.984375 -6.109375 -0.984375q-3.234375 0 -5.5625 0.8125q-2.3125 0.8125 -3.609375 2.28125q-1.296875 1.453125 -1.296875 3.5q0 1.828125 1.078125 3.125q1.078125 1.296875 2.90625 2.328125q1.84375 1.03125 4.21875 1.734375q2.375 0.703125 4.96875 1.125q5.9375 1.1875 10.75 3.140625q4.8125 1.9375 8.3125 4.75q3.515625 2.796875 5.40625 6.640625q1.890625 3.828125 1.890625 8.90625q0 7.890625 -3.84375 13.34375q-3.828125 5.453125 -10.46875 8.3125q-6.640625 2.859375 -15.28125 2.859375zm33.80014 -1.078125l29.921875 -75.59375l15.546875 0l29.703125 75.59375l-18.578125 0l-14.25 -38.34375q-0.875 -2.265625 -1.734375 -4.859375q-0.859375 -2.59375 -1.734375 -5.34375q-0.859375 -2.75 -1.671875 -5.390625q-0.8125 -2.65625 -1.34375 -4.921875l3.234375 -0.109375q-0.640625 2.703125 -1.453125 5.296875q-0.8125 2.59375 -1.625 5.125q-0.8125 2.53125 -1.78125 5.078125q-0.96875 2.53125 -1.828125 5.234375l-14.265625 38.234375l-18.140625 0zm14.25 -14.46875l5.734375 -13.828125l34.765625 0l5.625 13.828125l-46.125 0zm60.927032 -8.640625l0 -15.875l37.359406 0l0 15.875l-37.359406 0zm50.649628 23.109375l0 -79.921875l17.28125 0l0 79.921875l-17.28125 0zm33.691406 0l0 -57.34375l17.28125 0l0 57.34375l-17.28125 0zm8.640625 -68.6875q-4.859375 0 -7.625 -2.3125q-2.75 -2.328125 -2.75 -6.65625q0 -3.890625 2.8125 -6.375q2.8125 -2.484375 7.5625 -2.484375q4.859375 0 7.5625 2.328125q2.703125 2.328125 2.703125 6.53125q0 4.0 -2.765625 6.484375q-2.75 2.484375 -7.5 2.484375zm41.46765 51.84375l-6.375 -12.96875l26.796875 -27.53125l22.78125 0l-43.203125 40.5zm-16.625 16.84375l0 -79.921875l17.28125 0l0 79.921875l-17.28125 0zm38.875 0l-20.1875 -26.140625l12.203125 -9.5l28.390625 35.640625l-20.40625 0zm53.669556 1.078125q-9.5 0 -16.515625 -3.828125q-7.015625 -3.84375 -10.90625 -10.484375q-3.890625 -6.640625 -3.890625 -15.171875q0 -6.578125 2.15625 -12.09375q2.15625 -5.515625 6.046875 -9.5625q3.890625 -4.046875 9.234375 -6.25q5.34375 -2.21875 11.71875 -2.21875q6.046875 0 11.0625 2.15625q5.03125 2.15625 8.703125 6.046875q3.671875 3.890625 5.609375 9.1875q1.953125 5.28125 1.734375 11.546875l-0.109375 4.640625l-45.6875 0l-2.484375 -9.71875l34.140625 0l-1.84375 2.0625l0 -2.171875q-0.21875 -2.6875 -1.671875 -4.796875q-1.453125 -2.109375 -3.828125 -3.296875q-2.375 -1.1875 -5.40625 -1.1875q-4.203125 0 -7.1875 1.671875q-2.96875 1.671875 -4.484375 4.859375q-1.5 3.1875 -1.5 7.828125q0 4.75 2.0 8.265625q2.0 3.515625 5.828125 5.453125q3.828125 1.9375 9.125 1.9375q3.671875 0 6.53125 -1.078125q2.859375 -1.078125 6.21875 -3.671875l8.09375 11.453125q-3.34375 2.921875 -7.125 4.765625q-3.78125 1.828125 -7.734375 2.734375q-3.9375 0.921875 -7.828125 0.921875z" fill-rule="nonzero"/><path fill="#106635" d="m164.47662 514.58044l29.921875 -75.59378l15.546875 0l29.703125 75.59378l-18.578125 0l-14.25 -38.34378q-0.875 -2.265625 -1.734375 -4.859375q-0.859375 -2.59375 -1.734375 -5.34375q-0.859375 -2.75 -1.671875 -5.390625q-0.8125 -2.65625 -1.34375 -4.921875l3.234375 -0.109375q-0.640625 2.703125 -1.453125 5.296875q-0.8125 2.59375 -1.625 5.125q-0.8125 2.53125 -1.78125 5.078125q-0.96875 2.53125 -1.828125 5.234375l-14.265625 38.234406l-18.140625 0zm14.25 -14.4687805l5.734375 -13.828125l34.765625 0l5.625 13.828125l-46.125 0zm87.8114 15.5469055q-8.421875 0 -14.859375 -2.6875q-6.421875 -2.7031555 -10.203125 -7.2500305l10.484375 -9.0625q3.34375 3.34375 7.546875 4.90625q4.21875 1.5625 8.0 1.5625q1.515625 0 2.703125 -0.3125q1.1875 -0.328125 2.0 -0.921875q0.8125 -0.59375 1.234375 -1.40625q0.4375 -0.8125 0.4375 -1.890625q0 -2.15625 -1.9375 -3.34375q-0.984375 -0.546875 -3.25 -1.296875q-2.265625 -0.765625 -5.828125 -1.734375q-5.078125 -1.296875 -8.8125 -3.078125q-3.71875 -1.78125 -6.09375 -4.15625q-2.15625 -2.265625 -3.34375 -5.015625q-1.1875 -2.765625 -1.1875 -6.21875q0 -3.984375 1.890625 -7.21875q1.890625 -3.25 5.078125 -5.625q3.1875 -2.375 7.34375 -3.609375q4.15625 -1.25 8.578125 -1.25q4.75 0 9.0625 1.078125q4.328125 1.078125 8.046875 3.03125q3.734375 1.9375 6.65625 4.640625l-9.078125 10.140625q-1.9375 -1.828125 -4.375 -3.28125q-2.421875 -1.46875 -5.015625 -2.328125q-2.59375 -0.859375 -4.75 -0.859375q-1.625 0 -2.875 0.265625q-1.234375 0.265625 -2.109375 0.859375q-0.859375 0.59375 -1.296875 1.40625q-0.421875 0.8125 -0.421875 1.890625q0 1.078125 0.59375 2.0625q0.59375 0.96875 1.671875 1.609375q1.078125 0.640625 3.453125 1.453125q2.390625 0.8125 6.484375 2.0q5.078125 1.40625 8.75 3.140625q3.671875 1.71875 5.828125 4.09375q1.734375 1.84375 2.59375 4.28125q0.875 2.421875 0.875 5.234375q0 5.5 -3.078125 9.765625q-3.078125 4.265625 -8.484375 6.7031555q-5.40625 2.421875 -12.3125 2.421875zm53.460022 0q-8.421875 0 -14.859375 -2.6875q-6.421875 -2.7031555 -10.203125 -7.2500305l10.484375 -9.0625q3.34375 3.34375 7.546875 4.90625q4.21875 1.5625 8.0 1.5625q1.515625 0 2.703125 -0.3125q1.1875 -0.328125 2.0 -0.921875q0.8125 -0.59375 1.234375 -1.40625q0.4375 -0.8125 0.4375 -1.890625q0 -2.15625 -1.9375 -3.34375q-0.984375 -0.546875 -3.25 -1.296875q-2.265625 -0.765625 -5.828125 -1.734375q-5.078125 -1.296875 -8.8125 -3.078125q-3.71875 -1.78125 -6.09375 -4.15625q-2.15625 -2.265625 -3.34375 -5.015625q-1.1875 -2.765625 -1.1875 -6.21875q0 -3.984375 1.890625 -7.21875q1.890625 -3.25 5.078125 -5.625q3.1875 -2.375 7.34375 -3.609375q4.15625 -1.25 8.578125 -1.25q4.75 0 9.0625 1.078125q4.328125 1.078125 8.046875 3.03125q3.734375 1.9375 6.65625 4.640625l-9.078125 10.140625q-1.9375 -1.828125 -4.375 -3.28125q-2.421875 -1.46875 -5.015625 -2.328125q-2.59375 -0.859375 -4.75 -0.859375q-1.625 0 -2.875 0.265625q-1.234375 0.265625 -2.109375 0.859375q-0.859375 0.59375 -1.296875 1.40625q-0.421875 0.8125 -0.421875 1.890625q0 1.078125 0.59375 2.0625q0.59375 0.96875 1.671875 1.609375q1.078125 0.640625 3.453125 1.453125q2.390625 0.8125 6.484375 2.0q5.078125 1.40625 8.75 3.140625q3.671875 1.71875 5.828125 4.09375q1.734375 1.84375 2.59375 4.28125q0.875 2.421875 0.875 5.234375q0 5.5 -3.078125 9.765625q-3.078125 4.265625 -8.484375 6.7031555q-5.40625 2.421875 -12.3125 2.421875zm61.444397 0q-9.5 0 -16.515625 -3.8281555q-7.015625 -3.84375 -10.90625 -10.484375q-3.890625 -6.640625 -3.890625 -15.171875q0 -6.578125 2.15625 -12.09375q2.15625 -5.515625 6.046875 -9.5625q3.890625 -4.046875 9.234375 -6.25q5.34375 -2.21875 11.71875 -2.21875q6.046875 0 11.0625 2.15625q5.03125 2.15625 8.703125 6.046875q3.671875 3.890625 5.609375 9.1875q1.953125 5.28125 1.734375 11.546875l-0.109375 4.640625l-45.6875 0l-2.484375 -9.71875l34.140625 0l-1.84375 2.0625l0 -2.171875q-0.21875 -2.6875 -1.671875 -4.796875q-1.453125 -2.109375 -3.828125 -3.296875q-2.375 -1.1875 -5.40625 -1.1875q-4.203125 0 -7.1875 1.671875q-2.96875 1.671875 -4.484375 4.859375q-1.5 3.1875 -1.5 7.828125q0 4.75 2.0 8.265625q2.0 3.515625 5.828125 5.453125q3.828125 1.9375 9.125 1.9375q3.671875 0 6.53125 -1.078125q2.859375 -1.078125 6.21875 -3.671875l8.09375 11.453125q-3.34375 2.921875 -7.125 4.7656555q-3.78125 1.828125 -7.734375 2.734375q-3.9375 0.921875 -7.828125 0.921875zm55.30365 0q-8.421875 0 -14.859375 -2.6875q-6.421875 -2.7031555 -10.203125 -7.2500305l10.484375 -9.0625q3.34375 3.34375 7.546875 4.90625q4.21875 1.5625 8.0 1.5625q1.515625 0 2.703125 -0.3125q1.1875 -0.328125 2.0 -0.921875q0.8125 -0.59375 1.234375 -1.40625q0.4375 -0.8125 0.4375 -1.890625q0 -2.15625 -1.9375 -3.34375q-0.984375 -0.546875 -3.25 -1.296875q-2.265625 -0.765625 -5.828125 -1.734375q-5.078125 -1.296875 -8.8125 -3.078125q-3.71875 -1.78125 -6.09375 -4.15625q-2.15625 -2.265625 -3.34375 -5.015625q-1.1875 -2.765625 -1.1875 -6.21875q0 -3.984375 1.890625 -7.21875q1.890625 -3.25 5.078125 -5.625q3.1875 -2.375 7.34375 -3.609375q4.15625 -1.25 8.578125 -1.25q4.75 0 9.0625 1.078125q4.328125 1.078125 8.046875 3.03125q3.734375 1.9375 6.65625 4.640625l-9.078125 10.140625q-1.9375 -1.828125 -4.375 -3.28125q-2.421875 -1.46875 -5.015625 -2.328125q-2.59375 -0.859375 -4.75 -0.859375q-1.625 0 -2.875 0.265625q-1.234375 0.265625 -2.109375 0.859375q-0.859375 0.59375 -1.296875 1.40625q-0.421875 0.8125 -0.421875 1.890625q0 1.078125 0.59375 2.0625q0.59375 0.96875 1.671875 1.609375q1.078125 0.640625 3.453125 1.453125q2.390625 0.8125 6.484375 2.0q5.078125 1.40625 8.75 3.140625q3.671875 1.71875 5.828125 4.09375q1.734375 1.84375 2.59375 4.28125q0.875 2.421875 0.875 5.234375q0 5.5 -3.078125 9.765625q-3.078125 4.265625 -8.484375 6.7031555q-5.40625 2.421875 -12.3125 2.421875zm53.460022 0q-8.421875 0 -14.859375 -2.6875q-6.421875 -2.7031555 -10.203125 -7.2500305l10.484375 -9.0625q3.34375 3.34375 7.546875 4.90625q4.21875 1.5625 8.0 1.5625q1.515625 0 2.703125 -0.3125q1.1875 -0.328125 2.0 -0.921875q0.8125 -0.59375 1.234375 -1.40625q0.4375 -0.8125 0.4375 -1.890625q0 -2.15625 -1.9375 -3.34375q-0.984375 -0.546875 -3.25 -1.296875q-2.265625 -0.765625 -5.828125 -1.734375q-5.078125 -1.296875 -8.8125 -3.078125q-3.71875 -1.78125 -6.09375 -4.15625q-2.15625 -2.265625 -3.34375 -5.015625q-1.1875 -2.765625 -1.1875 -6.21875q0 -3.984375 1.890625 -7.21875q1.890625 -3.25 5.078125 -5.625q3.1875 -2.375 7.34375 -3.609375q4.15625 -1.25 8.578125 -1.25q4.75 0 9.0625 1.078125q4.328125 1.078125 8.046875 3.03125q3.734375 1.9375 6.65625 4.640625l-9.078125 10.140625q-1.9375 -1.828125 -4.375 -3.28125q-2.421875 -1.46875 -5.015625 -2.328125q-2.59375 -0.859375 -4.75 -0.859375q-1.625 0 -2.875 0.265625q-1.234375 0.265625 -2.109375 0.859375q-0.859375 0.59375 -1.296875 1.40625q-0.421875 0.8125 -0.421875 1.890625q0 1.078125 0.59375 2.0625q0.59375 0.96875 1.671875 1.609375q1.078125 0.640625 3.453125 1.453125q2.390625 0.8125 6.484375 2.0q5.078125 1.40625 8.75 3.140625q3.671875 1.71875 5.828125 4.09375q1.734375 1.84375 2.59375 4.28125q0.875 2.421875 0.875 5.234375q0 5.5 -3.078125 9.765625q-3.078125 4.265625 -8.484375 6.7031555q-5.40625 2.421875 -12.3125 2.421875zm34.022522 -1.078125l0 -57.34378l16.40625 0l0.546875 10.359375l-2.265625 0.109375q1.296875 -2.8125 3.296875 -4.96875q2.0 -2.15625 4.53125 -3.609375q2.53125 -1.46875 5.28125 -2.21875q2.765625 -0.75 5.578125 -0.75q4.203125 0 7.65625 1.296875q3.46875 1.28125 6.046875 4.15625q2.59375 2.859375 4.109375 7.71875l-2.703125 -0.21875l0.875 -1.734375q1.390625 -2.578125 3.609375 -4.6875q2.21875 -2.109375 4.90625 -3.5625q2.703125 -1.46875 5.625 -2.21875q2.921875 -0.75 5.625 -0.75q6.796875 0 11.328125 2.640625q4.546875 2.640625 6.859375 7.9375q2.328125 5.296875 2.328125 12.859375l0 34.984406l-17.390625 0l0 -33.59378q0 -3.453125 -0.96875 -5.71875q-0.96875 -2.265625 -2.859375 -3.390625q-1.890625 -1.140625 -4.703125 -1.140625q-2.265625 0 -4.15625 0.75q-1.890625 0.75 -3.25 2.046875q-1.34375 1.296875 -2.109375 3.03125q-0.75 1.734375 -0.75 3.890625l0 34.12503l-17.390625 0l0 -33.703156q0 -3.234375 -0.96875 -5.5q-0.96875 -2.265625 -2.921875 -3.453125q-1.9375 -1.1875 -4.53125 -1.1875q-2.265625 0 -4.15625 0.75q-1.890625 0.75 -3.25 2.046875q-1.34375 1.296875 -2.09375 3.03125q-0.75 1.734375 -0.75 3.78125l0 34.234406l-17.390625 0zm131.318 1.078125q-9.5 0 -16.515625 -3.8281555q-7.015686 -3.84375 -10.906311 -10.484375q-3.890625 -6.640625 -3.890625 -15.171875q0 -6.578125 2.15625 -12.09375q2.15625 -5.515625 6.046875 -9.5625q3.890625 -4.046875 9.234436 -6.25q5.34375 -2.21875 11.71875 -2.21875q6.046875 0 11.0625 2.15625q5.03125 2.15625 8.703125 6.046875q3.671875 3.890625 5.609375 9.1875q1.953125 5.28125 1.734375 11.546875l-0.109375 4.640625l-45.68756 0l-2.484375 -9.71875l34.140686 0l-1.84375 2.0625l0 -2.171875q-0.21875 -2.6875 -1.671875 -4.796875q-1.453125 -2.109375 -3.828125 -3.296875q-2.375 -1.1875 -5.40625 -1.1875q-4.203125 0 -7.1875 1.671875q-2.96875 1.671875 -4.484375 4.859375q-1.5 3.1875 -1.5 7.828125q0 4.75 2.0 8.265625q2.0 3.515625 5.828125 5.453125q3.828125 1.9375 9.125 1.9375q3.671875 0 6.53125 -1.078125q2.859375 -1.078125 6.21875 -3.671875l8.09375 11.453125q-3.34375 2.921875 -7.125 4.7656555q-3.78125 1.828125 -7.734375 2.734375q-3.9375 0.921875 -7.828125 0.921875zm35.975464 -1.078125l0 -57.34378l16.40625 0l0.546875 11.65625l-3.453125 1.296875q1.1875 -3.890625 4.265625 -7.0625q3.078125 -3.1875 7.390625 -5.125q4.328125 -1.953125 9.078125 -1.953125q6.484375 0 10.90625 2.640625q4.421875 2.640625 6.6875 7.890625q2.28125 5.234375 2.28125 12.796875l0 35.203156l-17.390625 0l0 -33.796906q0 -3.46875 -0.984375 -5.734375q-0.96875 -2.265625 -2.96875 -3.390625q-1.984375 -1.140625 -4.90625 -1.03125q-2.265625 0 -4.21875 0.703125q-1.9375 0.703125 -3.34375 2.046875q-1.40625 1.34375 -2.21875 3.078125q-0.796875 1.734375 -0.796875 3.78125l0 34.34378l-8.53125 0q-3.03125 0 -5.1875 0q-2.15625 0 -3.5625 0zm73.33008 0l0 -71.81253l17.28125 0l0 71.81253l-17.28125 0zm-10.15625 -42.234406l0 -15.109375l38.5625 0l0 15.109375l-38.5625 0z" fill-rule="nonzero"/><path fill="#106635" d="m326.47043 644.1804l0 -15.4375l12.75 0l0 -44.71875l-12.75 0l0 -15.4375l43.96875 0l0 15.4375l-12.859375 0l0 44.71875l12.859375 0l0 15.4375l-43.96875 0zm64.3775 0l0 -71.8125l17.28125 0l0 71.8125l-17.28125 0zm-10.1562195 -42.234375l0 -15.109375l38.56247 0l0 15.109375l-38.56247 0zm75.16275 43.3125q-9.5 0 -16.515625 -3.828125q-7.015625 -3.84375 -10.90625 -10.484375q-3.890625 -6.640625 -3.890625 -15.171875q0 -6.578125 2.15625 -12.09375q2.15625 -5.515625 6.046875 -9.5625q3.890625 -4.046875 9.234375 -6.25q5.34375 -2.21875 11.71875 -2.21875q6.046875 0 11.0625 2.15625q5.03125 2.15625 8.703125 6.046875q3.671875 3.890625 5.609375 9.1875q1.953125 5.28125 1.734375 11.546875l-0.109375 4.640625l-45.6875 0l-2.484375 -9.71875l34.140625 0l-1.84375 2.0625l0 -2.171875q-0.21875 -2.6875 -1.671875 -4.796875q-1.453125 -2.109375 -3.828125 -3.296875q-2.375 -1.1875 -5.40625 -1.1875q-4.203125 0 -7.1875 1.671875q-2.96875 1.671875 -4.484375 4.859375q-1.5 3.1875 -1.5 7.828125q0 4.75 2.0 8.265625q2.0 3.515625 5.828125 5.453125q3.828125 1.9375 9.125 1.9375q3.671875 0 6.53125 -1.078125q2.859375 -1.078125 6.21875 -3.671875l8.09375 11.453125q-3.34375 2.921875 -7.125 4.765625q-3.78125 1.828125 -7.734375 2.734375q-3.9375 0.921875 -7.828125 0.921875zm35.86615 -1.078125l0 -57.34375l16.40625 0l0.546875 10.359375l-2.265625 0.109375q1.296875 -2.8125 3.296875 -4.96875q2.0 -2.15625 4.5312805 -3.609375q2.53125 -1.46875 5.28125 -2.21875q2.765625 -0.75 5.578125 -0.75q4.203125 0 7.65625 1.296875q3.46875 1.28125 6.046875 4.15625q2.59375 2.859375 4.109375 7.71875l-2.703125 -0.21875l0.875 -1.734375q1.390625 -2.578125 3.609375 -4.6875q2.21875 -2.109375 4.90625 -3.5625q2.703125 -1.46875 5.625 -2.21875q2.921875 -0.75 5.625 -0.75q6.796875 0 11.328125 2.640625q4.546875 2.640625 6.859375 7.9375q2.328125 5.296875 2.328125 12.859375l0 34.984375l-17.390625 0l0 -33.59375q0 -3.453125 -0.96875 -5.71875q-0.96875 -2.265625 -2.859375 -3.390625q-1.890625 -1.140625 -4.703125 -1.140625q-2.265625 0 -4.15625 0.75q-1.890625 0.75 -3.25 2.046875q-1.34375 1.296875 -2.109375 3.03125q-0.75 1.734375 -0.75 3.890625l0 34.125l-17.390625 0l0 -33.703125q0 -3.234375 -0.96875 -5.5q-0.96875 -2.265625 -2.921875 -3.453125q-1.9375 -1.1875 -4.53125 -1.1875q-2.265625 0 -4.15625 0.75q-1.890625 0.75 -3.2500305 2.046875q-1.34375 1.296875 -2.09375 3.03125q-0.75 1.734375 -0.75 3.78125l0 34.234375l-17.390625 0zm123.33359 1.078125q-8.421875 0 -14.859375 -2.6875q-6.421875 -2.703125 -10.203125 -7.25l10.484375 -9.0625q3.34375 3.34375 7.546875 4.90625q4.21875 1.5625 8.0 1.5625q1.515625 0 2.703125 -0.3125q1.1875 -0.328125 2.0 -0.921875q0.8125 -0.59375 1.234375 -1.40625q0.4375 -0.8125 0.4375 -1.890625q0 -2.15625 -1.9375 -3.34375q-0.984375 -0.546875 -3.25 -1.296875q-2.265625 -0.765625 -5.828125 -1.734375q-5.078125 -1.296875 -8.8125 -3.078125q-3.71875 -1.78125 -6.09375 -4.15625q-2.15625 -2.265625 -3.34375 -5.015625q-1.1875 -2.765625 -1.1875 -6.21875q0 -3.984375 1.890625 -7.21875q1.890625 -3.25 5.078125 -5.625q3.1875 -2.375 7.34375 -3.609375q4.15625 -1.25 8.578125 -1.25q4.75 0 9.0625 1.078125q4.328125 1.078125 8.046875 3.03125q3.734375 1.9375 6.65625 4.640625l-9.078125 10.140625q-1.9375 -1.828125 -4.375 -3.28125q-2.421875 -1.46875 -5.015625 -2.328125q-2.59375 -0.859375 -4.75 -0.859375q-1.625 0 -2.875 0.265625q-1.234375 0.265625 -2.109375 0.859375q-0.859375 0.59375 -1.296875 1.40625q-0.421875 0.8125 -0.421875 1.890625q0 1.078125 0.59375 2.0625q0.59375 0.96875 1.671875 1.609375q1.078125 0.640625 3.453125 1.453125q2.390625 0.8125 6.484375 2.0q5.078125 1.40625 8.75 3.140625q3.671875 1.71875 5.828125 4.09375q1.734375 1.84375 2.59375 4.28125q0.875 2.421875 0.875 5.234375q0 5.5 -3.078125 9.765625q-3.078125 4.265625 -8.484375 6.703125q-5.40625 2.421875 -12.3125 2.421875z" fill-rule="nonzero"/></g></svg>